# xmcd
#
# Track frame offsets: 
#        150
#        23880
#        35189
#        47830
#        59732
#        70748
#        90968
#        104993
#        117106
#        131608
#        145360
#        159154
#        172855
#        186390
#        199615
#        215468
#        234430
#        249659
#        263601
#        275991
#        287604
#        299486
#        310098
#
# Disc length: 4303 seconds
#
# Revision: 2
# Processed by: cddbd v1.5.2PL0 Copyright (c) Steve Scherf et al.
# Submitted via: ExactAudioCopyFreeDBPlugin 1.0
#
DISCID=6310cd17
DTITLE=Various Artist - Lost Deep Soul Treasures [S.O.S. Sounds of So
DTITLE=ul]
DYEAR=2001
DGENRE=Soul
TTITLE0=Sam Dees - My World
TTITLE1=George Freeman - I'm Like a Fish
TTITLE2=Al Gardner - Just the Touch
TTITLE3=Bobby Harris - Lonely Intruder
TTITLE4=Charles Lattimore - We Try Harder
TTITLE5=Wilson Williams - I Have a Whole Lot to Be Thankful For
TTITLE6=Ada Ray - I No Longer Believe in Miracles
TTITLE7=Bobby Williams - Try Love
TTITLE8=Blues Brothers #1 - Letter of Regret
TTITLE9=Eddie Billups - Hard Headed Woman
TTITLE10=Freddie Watson - It's All Over Now
TTITLE11=Barbara and Gwen - I Love My Man
TTITLE12=Lee Mitchell - I Come a Long Way
TTITLE13=Jimmy Ponder - Sometimes You Win
TTITLE14=Ike Lovely - You're My Bad Habit
TTITLE15=Lavorn Smith - Without Your Love I'll Be Nothing
TTITLE16=Sloan Bey - Tenderness
TTITLE17=Leonard Lee - Since You've Been Gone
TTITLE18=Tommy Dodson - You Don't Know
TTITLE19=King Louie - I've Been Down So Long
TTITLE20=Lord Luther - Two of a Kind
TTITLE21=Ronnie North - Try Me
TTITLE22=Tommy Ridgley - Did You Tell Him
EXTD=
EXTT0=
EXTT1=
EXTT2=
EXTT3=
EXTT4=
EXTT5=
EXTT6=
EXTT7=
EXTT8=
EXTT9=
EXTT10=
EXTT11=
EXTT12=
EXTT13=
EXTT14=
EXTT15=
EXTT16=
EXTT17=
EXTT18=
EXTT19=
EXTT20=
EXTT21=
EXTT22=
PLAYORDER=
